<?xml version="1.0" encoding="utf-8"?>
<!-- Generator: Adobe Illustrator 26.0.3, SVG Export Plug-In . SVG Version: 6.00 Build 0)  -->
<svg version="1.1" id="Calque_1" xmlns="http://www.w3.org/2000/svg" xmlns:xlink="http://www.w3.org/1999/xlink" x="0px" y="0px"
	 viewBox="0 0 60.5 60.5" style="enable-background:new 0 0 60.5 60.5;" xml:space="preserve">
<style type="text/css">
	.st0{fill:#FFFFFF;}
	.st1{fill:url(#SVGID_1_);}
	.st2{fill:url(#SVGID_00000115511006677307845790000008853433778470985136_);}
</style>
<path class="st0" d="M48.5,60.5H12c-6.6,0-12-5.4-12-12V12C0,5.4,5.4,0,12,0h36.5c6.6,0,12,5.4,12,12v36.5
	C60.5,55.1,55.1,60.5,48.5,60.5z"/>
<g>
	<linearGradient id="SVGID_1_" gradientUnits="userSpaceOnUse" x1="16.4746" y1="45.6057" x2="16.4746" y2="23.4806">
		<stop  offset="0" style="stop-color:#FF79DA"/>
		<stop  offset="1" style="stop-color:#9356DC"/>
	</linearGradient>
	<path class="st1" d="M18.8,23.5c3.7,0,6.5,0.8,8.2,2.3c1.8,1.5,2.7,3.5,2.7,5.9c0,0.8-0.1,1.7-0.3,2.8c-0.5,2.2-1.5,4.2-2.9,5.9
		c-1.4,1.7-3.2,3-5.3,3.9c-2.1,0.9-4.3,1.4-6.7,1.4c-3.8,0-6.6-0.8-8.5-2.3c-1.8-1.5-2.7-3.6-2.7-6.1c0-0.8,0.1-1.8,0.3-2.8
		c0.5-2.1,1.5-4,3-5.7c1.5-1.7,3.3-3,5.4-3.9C14.1,23.9,16.4,23.5,18.8,23.5z M18.7,27.1c-0.6,0-1.2,0.5-1.9,1.6
		c-0.6,1-1.4,2.9-2.3,5.8c-0.9,2.9-1.3,4.9-1.3,6c0,0.6,0.1,1,0.3,1.2c0.2,0.2,0.5,0.3,0.8,0.3c0.6,0.1,1.2-0.4,1.8-1.5
		c0.6-1,1.4-3.1,2.3-6.1c0.8-2.7,1.3-4.6,1.3-5.8c0-0.6-0.1-1-0.3-1.2C19.2,27.3,19,27.1,18.7,27.1z"/>
	
		<linearGradient id="SVGID_00000070080064044575179970000000921877538839403674_" gradientUnits="userSpaceOnUse" x1="42.166" y1="45.6057" x2="42.166" y2="14.8444">
		<stop  offset="0" style="stop-color:#FF79DA"/>
		<stop  offset="1" style="stop-color:#9356DC"/>
	</linearGradient>
	<path style="fill:url(#SVGID_00000070080064044575179970000000921877538839403674_);" d="M54.3,39.6c-0.1,0.1-0.1,0.3-0.1,0.5
		c0,0.2,0,0.3,0.1,0.5c0.1,0.1,0.2,0.2,0.4,0.2c0.3,0,0.6-0.1,0.8-0.4c0.2-0.3,0.4-0.5,0.5-0.5c0.1,0,0.2,0.1,0.3,0.3
		c0.1,0.2,0.1,0.4,0.1,0.6c0,0.8-0.2,1.6-0.8,2.3c-0.5,0.7-1.4,1.4-2.4,1.9c-1,0.5-2.3,0.7-3.8,0.7c-1.8,0-3.2-0.4-4.3-1.2
		c-1.1-0.8-1.6-2-1.6-3.4c0-1,0.2-2.2,0.7-3.4l2.3-5.9c0.1-0.4,0.2-0.6,0.2-0.9c0-0.4-0.1-0.6-0.4-0.8c-0.2-0.2-0.5-0.3-0.8-0.3
		c-0.5,0-1.1,0.2-1.6,0.7c-0.5,0.5-0.9,1.2-1.3,2.3v-0.1L40.1,41c-0.1,0.3-0.1,0.6-0.1,0.9c0,0.4,0.1,0.6,0.2,0.9
		c0.1,0.2,0.3,0.4,0.6,0.6c0.2,0.2,0.3,0.4,0.4,0.5c0.1,0.1,0.1,0.3,0,0.5c-0.1,0.4-0.4,0.6-0.8,0.8s-1,0.2-1.9,0.2h-9.4
		c-0.7,0-1.2-0.1-1.6-0.3c-0.3-0.2-0.4-0.6-0.3-0.9c0.1-0.3,0.4-0.6,0.9-0.9c0.4-0.2,0.8-0.5,1-0.8c0.3-0.3,0.5-0.8,0.7-1.4L36,20.4
		c0.1-0.2,0.1-0.5,0.1-0.6c0-0.3-0.1-0.5-0.2-0.7c-0.1-0.2-0.3-0.4-0.6-0.6c-0.3-0.2-0.5-0.4-0.6-0.6c-0.1-0.2-0.1-0.4,0-0.7
		c0.2-0.6,1-1.2,2.6-1.6c1.6-0.5,3.2-0.7,4.9-0.7c1.6,0,2.8,0.3,3.5,0.9c0.8,0.6,1.2,1.4,1.2,2.5c0,0.6-0.1,1.2-0.3,1.8l-2.2,7.2
		c1.1-1.4,2.2-2.4,3.4-2.9c1.2-0.5,2.5-0.8,3.9-0.8c1.7,0,3,0.5,4,1.5c1,1,1.6,2.3,1.6,3.9c0,0.8-0.1,1.7-0.4,2.5L54.3,39.6z"/>
</g>
</svg>
